<svg xmlns="http://www.w3.org/2000/svg" version="1.1" xmlns:xlink="http://www.w3.org/1999/xlink" xmlns:svgjs="http://svgjs.dev/svgjs" width="1000" height="623" viewBox="0 0 1000 623"><g transform="matrix(1,0,0,1,-0.6060606060606233,0.2522267206477409)"><svg viewBox="0 0 396 247" data-background-color="#ffffff" preserveAspectRatio="xMidYMid meet" height="623" width="1000" xmlns="http://www.w3.org/2000/svg" xmlns:xlink="http://www.w3.org/1999/xlink"><g id="tight-bounds" transform="matrix(1,0,0,1,0.2400000000000091,-0.09999999999999432)"><svg viewBox="0 0 395.52 247.2" height="247.2" width="395.52"><g><svg></svg></g><g><svg viewBox="0 0 395.52 247.2" height="247.2" width="395.52"><g transform="matrix(1,0,0,1,39.55199999999999,84.18562004175365)"><svg viewBox="0 0 316.416 78.8287599164927" height="78.8287599164927" width="316.416"><g><svg viewBox="0 0 316.416 78.8287599164927" height="78.8287599164927" width="316.416"><g><svg viewBox="0 0 316.416 78.8287599164927" height="78.8287599164927" width="316.416"><g><svg viewBox="0 0 316.416 78.8287599164927" height="78.8287599164927" width="316.416"><g><svg viewBox="0 0 316.416 78.8287599164927" height="78.8287599164927" width="316.416"><g><svg viewBox="0 0 316.416 78.8287599164927" height="78.8287599164927" width="316.416"><g transform="matrix(1,0,0,1,0,0)"><svg width="316.416" viewBox="2.549999952316284 -35.29999923706055 143.69000244140625 35.79999923706055" height="78.8287599164927" data-palette-color="#4a596d"><path d="M13.75-32.55L13.75-32.55Q5.7-32.55 5.7-26.4L5.7-26.4Q5.7-22.8 7.53-21.55 9.35-20.3 14.68-19.25 20-18.2 22.28-16.35 24.55-14.5 24.55-10.15L24.55-10.15Q24.55-4.55 21.78-2.08 19 0.4 13.65 0.4L13.65 0.4Q9.75 0.4 4.6-0.3L4.6-0.3 2.8-0.55 3.15-3.2Q10-2.35 13.75-2.35 17.5-2.35 19.45-4.17 21.4-6 21.4-9.53 21.4-13.05 19.68-14.33 17.95-15.6 14.18-16.3 10.4-17 8.65-17.57 6.9-18.15 5.38-19.23 3.85-20.3 3.2-21.98 2.55-23.65 2.55-26.2L2.55-26.2Q2.55-35.3 13.55-35.3L13.55-35.3Q16.85-35.3 22.15-34.6L22.15-34.6 23.8-34.35 23.55-31.7Q16.65-32.55 13.75-32.55ZM34.5 0L31.4 0 31.4-34.75 37.5-34.75 52.05-2.75 53.2-2.75 53.2-34.75 56.25-34.75 56.25 0 50.25 0 35.6-31.95 34.5-31.95 34.5 0ZM65 0L61.9 0 71.9-34.75 79.15-34.75 89.09 0 86.05 0 83.25-9.6 67.75-9.6 65 0ZM76.84-32.05L74.15-32.05 68.5-12.35 82.5-12.35 76.84-32.05ZM114.64-3.25L114.79-0.55Q109.64 0.5 105.99 0.5 102.34 0.5 100.12-0.28 97.89-1.05 96.49-2.45 95.09-3.85 94.29-6.1L94.29-6.1Q92.79-10.2 92.79-17.25L92.79-17.25Q92.79-28.55 96.39-32.2L96.39-32.2Q99.34-35.25 105.39-35.25L105.39-35.25Q109.54-35.25 114.79-34.2L114.79-34.2 114.64-31.5Q109.44-32.45 106.29-32.45 103.14-32.45 101.42-31.78 99.69-31.1 98.62-29.98 97.54-28.85 96.99-26.85L96.99-26.85Q95.99-23.45 95.99-18.35 95.99-13.25 96.34-10.73 96.69-8.2 97.69-6.15 98.69-4.1 100.64-3.2 102.59-2.3 106.04-2.3 109.49-2.3 114.64-3.25L114.64-3.25ZM146.24 0L143.19 0 143.19-16.05 124.34-16.05 124.34 0 121.24 0 121.24-34.75 124.34-34.75 124.34-18.8 143.19-18.8 143.19-34.75 146.24-34.75 146.24 0Z" opacity="1" transform="matrix(1,0,0,1,0,0)" fill="#4a596d" class="undefined-text-0" data-fill-palette-color="primary" id="text-0"></path></svg></g></svg></g></svg></g></svg></g><g></g></svg></g></svg></g></svg></g><g mask="url(#7f683778-a416-4641-b02e-07295b2dabf1)"><g transform="matrix(1.5600069469867057, 0, 0, 1.5600069469867057, 143.84921060931848, 0.9999999999999858)"><svg xmlns="http://www.w3.org/2000/svg" xmlns:xlink="http://www.w3.org/1999/xlink" version="1.1" x="0" y="0" viewBox="65.45359802246094 21.321212768554688 69.1160888671875 157.1787872314453" style="enable-background:new 0 0 200 200;" xml:space="preserve" height="157.1787872314453" width="69.1160888671875" class="icon-none" data-fill-palette-color="accent" id="none"><g fill="#4a596d" data-fill-palette-color="accent"><path d="M134.5 81.5c-0.2-4.4-0.9-8.8-2.2-13.1-0.7-2.2-1.6-4.3-2.9-6.4-1.3-2-2.9-4.1-5.3-5.5-1.2-0.7-2.5-1.2-3.9-1.5-0.7-0.1-1.5-0.2-2.1-0.2l-1.5-0.1c-2-0.1-4.1-0.3-6.2-0.5-1.6-0.1-3.2-0.3-4.9-0.4 2.2-0.6 4.4-1.5 6.3-3 2.6-1.9 4.6-4.9 5.5-8 0.4-1.5 0.3-2.9-0.3-3.9-0.6-1-1.4-1.5-2.3-1.5-0.9 0-1.8 0.5-2.4 1.1-0.7 0.6-1.2 1.4-1.4 2.3-0.6 1.8-1.6 3.4-3.2 4.6-1.5 1.2-3.5 1.9-5.5 2.1-4.1 0.5-8.4-1.2-10.4-4.3-0.8-1.3-1.4-2.8-1.6-4.4-0.2-1.7-0.1-3.4 0.3-5 0.9-3.1 3.3-5.6 6.6-6.7 3.3-1.2 7.2-1.1 10.5 0.6 1.6 0.8 3.1 2 4.1 3.5 1.1 1.5 1.8 3.4 2.1 5.4h0c0.1 0.5 0.5 0.8 0.9 0.8 0.4 0 0.8-0.3 0.8-0.9v0c0.1-2.2-0.3-4.6-1.2-6.7-1-2.2-2.6-4.1-4.6-5.5-2-1.4-4.3-2.3-6.7-2.7-2.4-0.4-4.9-0.4-7.3 0.2-2.4 0.6-4.8 1.7-6.8 3.5-2 1.7-3.5 4-4.4 6.5-0.8 2.5-1.1 5.1-0.8 7.6 0.2 2.6 1.1 5.2 2.6 7.5 1.8 2.8 4.5 4.9 7.5 6 0.4 0.1 0.7 0.2 1.1 0.4-3.5 0.1-7.1 0.4-10.8 1.2-2.8 0.7-5.6 1.6-8.2 3.3-2.6 1.7-4.9 4.1-6.4 6.9-0.7 1.4-1.2 3-1.6 4.4-0.3 1.4-0.6 2.7-0.8 4.1-0.4 2.7-0.7 5.4-0.8 8-0.3 5.3-0.1 10.7 0.7 16.1 0.4 2.7 1 5.4 1.9 8.1 0.9 2.7 2.2 5.4 4.2 7.9 1.9 2.4 4.9 3.7 6.9 3.7 0.1 0 0.3 0 0.4 0 0.3 2.5 0.7 5.1 1.1 7.6 0.1 0.6 1.6 0.6 1.7 0 1.7-9.6 2.5-19.3 2.5-29V78c0-1.4-1.5-2.5-3.4-2.5-1.9 0-3.4 1.1-3.4 2.5v17.7c0 5 0.2 10 0.7 15-0.5-0.5-0.9-1-1.5-1.7-1.3-1.5-2.3-3.5-3-5.7-0.7-2.2-1.3-4.5-1.6-6.9-0.7-4.8-0.9-9.8-0.6-14.8 0.1-2.5 0.4-4.9 0.7-7.4 0.2-1.2 0.4-2.4 0.7-3.5 0.3-1.1 0.6-2 1-2.9 0.9-1.8 2.2-3.2 4-4.3 1.8-1.1 3.9-1.9 6.1-2.4 3.7-0.9 7.7-1.1 11.8-1.1 4.1 0 8.2 0.3 12.4 0.6 2.1 0.1 4.2 0.3 6.5 0.3l1.7 0c0.5 0 0.7 0.1 1.1 0.1 0.7 0.1 1.3 0.3 2 0.7 2.6 1.4 4.7 4.9 6 8.5 1.4 3.7 2.2 7.6 2.6 11.7 0.4 4 0.5 8.1 0.2 12.2-0.4 4-1.1 8.1-2.6 11.8-0.7 1.9-1.7 3.6-3 5.1-0.9 1.1-2 2-3.2 2.6 0.6-6 1-11.9 1-17.9V78c0-1.4-1.5-2.5-3.4-2.5-1.9 0-3.4 1.1-3.4 2.5v17.7c0 9.7 0.8 19.3 2.5 29 0.1 0.6 1.6 0.6 1.7 0 0.5-3 0.9-6 1.3-9 1.9-0.6 3.7-1.7 5.1-3.1 1.6-1.6 2.9-3.5 3.9-5.5 2-4 3.1-8.2 3.9-12.5C134.5 90.3 134.7 85.9 134.5 81.5z" fill="#4a596d" data-fill-palette-color="accent"></path><path d="M132 137c-0.6-1.2-1.3-2.6-2.5-3.6-1.2-1.1-2.6-1.8-4-2.2-1.4-0.4-2.8-0.5-4-0.6-2.5-0.1-4.8 0-7.1 0-9.3-0.2-18.6-0.4-27.9-0.5-2.3 0-4.7-0.1-7.2 0-1.3 0.1-2.6 0.2-4.1 0.5-1.4 0.3-3 0.9-4.5 2-1.4 1.1-2.4 2.6-3.1 4.1-0.3 0.7-0.6 1.4-0.7 2.1l-0.3 1-0.2 1c-0.4 2.8-0.4 4.9-0.6 7.3-0.3 5.8-0.6 11.5 0 17.7 0.1 0.8 0.3 1.6 0.4 2.4 0.2 0.8 0.4 1.7 0.8 2.5 0.6 1.7 1.8 3.5 3.4 4.8 1.6 1.3 3.6 2.1 5.3 2.5 1.7 0.4 3.4 0.5 4.9 0.5 3.1 0 5.8-0.1 8.6-0.1h8.5l17.1 0c5.4 0 9.8-1.5 9.8-3.4v0c0-1.9-4.4-3.4-9.8-3.4l-17.1 0h-8.6c-2.8 0-5.9 0.1-8.5 0.1-2.6 0-4.9-0.4-6-1.4-1.2-0.9-1.9-2.9-2.2-5.4-0.6-5.2-0.3-10.9 0-16.5 0.2-2.3 0.2-4.8 0.5-6.6l0.1-0.7 0.2-0.7c0.1-0.5 0.3-0.8 0.4-1.2 0.3-0.7 0.6-1.2 1.1-1.5 0.4-0.3 1.1-0.6 1.9-0.8 0.8-0.2 1.8-0.3 2.9-0.4 2.1-0.1 4.4-0.1 6.8-0.1 9.4-0.1 18.8-0.3 28.1-0.5 2.4-0.1 4.8-0.3 6.9-0.3 1 0 2.1 0 2.9 0.2 0.8 0.2 1.5 0.5 2.1 1 0.6 0.4 1.1 1.2 1.5 2 0.4 0.8 0.8 1.9 1 2.8 0.5 2 0.7 4.3 0.9 6.6 0.4 4.5 0.5 9.1 0.2 13.7-0.2 2.3-0.5 4.5-1 6.7-0.5 2.1-1.4 4.3-3 5.3-0.8 0.5-1.3 0.8-1.4 1.2 0 0.2 0.2 0.4 0.5 0.5 0.4 0.1 1 0.1 1.6-0.2h0c1.3-0.6 2.2-1.7 2.8-2.8 0.7-1.1 1.2-2.2 1.6-3.4 0.8-2.3 1.3-4.7 1.7-7 0.7-4.7 0.9-9.5 0.9-14.2-0.1-2.4-0.2-4.7-0.6-7.3C132.9 139.4 132.5 138.3 132 137z" fill="#4a596d" data-fill-palette-color="accent"></path><path d="M88.4 154.3C88.4 154.3 88.4 154.3 88.4 154.3c-0.2 0-0.3 0-0.3-0.2 0-0.1-0.1-0.1-0.1-0.2l0-0.1c0 0 0.1-0.1 0.1-0.2l0.4-0.5c0.9-1.3 1.8-2.8 2.5-4.3v0c0.1-0.2-0.9-1.4-1.1-1.3-1.7 0.5-3.2 1.1-4.7 1.8l-0.5 0.3c-0.1 0.1-0.1 0.1-0.3 0.2l-0.5 0.3-1.9 1.3c-1.3 0.9-2.6 1.9-3.8 2.9 0.8 0.8 1.7 1.6 2.6 2.3l6.8 5.9c0.4 0.4 1.7-0.5 2.9-1.9 1.2-1.4 1.9-2.8 1.4-3.2L88.4 154.3z" fill="#4a596d" data-fill-palette-color="accent"></path><path d="M112.9 146.1c-0.4-0.4-1.7 0.5-2.9 1.9-1.2 1.4-1.9 2.8-1.4 3.2l3.6 3.1c0 0 0 0 0.1 0 0.1 0 0.2 0 0.2 0.2 0 0.1 0.1 0.1 0.1 0.2l0 0.1c0 0-0.1 0.1-0.1 0.2l-0.4 0.5c-0.9 1.3-1.8 2.8-2.5 4.3-0.1 0.2 0.9 1.4 1.1 1.3 1.7-0.5 3.2-1.1 4.7-1.8l0.5-0.3c0.1-0.1 0.1-0.1 0.3-0.2l0.5-0.3 1.9-1.3c1.3-0.9 2.6-1.9 3.8-2.9-0.8-0.8-1.7-1.6-2.6-2.3L112.9 146.1z" fill="#4a596d" data-fill-palette-color="accent"></path><path d="M102.2 148L102.2 148c-1.8-0.5-3.3-0.7-3.4-0.3l-1.4 4.5c-0.8 2.5-0.7 5.1 0.1 8.1 0.1 0.2 1.5 0.6 1.6 0.5 2.3-2 3.9-4.2 4.6-6.6l1.4-4.5C105.4 149.2 104 148.5 102.2 148z" fill="#4a596d" data-fill-palette-color="accent"></path></g></svg></g></g></svg></g><defs><mask id="c351bd38-1d3c-4304-b8a8-5ca30ad0c89e"><rect width="640" height="400" fill="white"></rect><rect width="348.05760000000004" height="55.56527183204419" fill="black" x="145.97119999999998" y="172.2173640839779" id="transform-me" transform="matrix(1,0,0,1,-122.24000000000001,-76.4)"></rect></mask><mask id="f0f3e521-7a07-4c72-91d3-a0f7b6fd30d8"><rect width="640" height="400" fill="white"></rect><rect width="348.05760000000004" height="115.00148022036564" fill="black" x="145.97119999999998" y="142.49925988981718" id="transform-me" transform="matrix(1,0,0,1,-122.24000000000001,-76.4)"></rect></mask><mask id="b9332403-d6c4-44cb-8b97-21edd96fe910"><rect width="640" height="400" fill="white"></rect><rect width="348.05760000000004" height="116.04791656858455" fill="black" x="145.97119999999998" y="141.9760417157077" id="transform-me" transform="matrix(1,0,0,1,-122.24000000000001,-76.4)"></rect></mask><mask id="aa299a55-7846-4d8d-ac5a-88c1415672a9"><rect width="640" height="400" fill="white"></rect><rect width="348.0576" height="117.51400210477925" fill="black" x="145.9712" y="141.24299894761037" id="transform-me" transform="matrix(1,0,0,1,-122.24000000000001,-76.4)"></rect></mask><mask id="835db560-610e-4a69-a71d-657f41a7f593"><rect width="640" height="400" fill="white"></rect><rect width="348.05760000000004" height="111.57943615220417" fill="black" x="145.97119999999998" y="144.21028192389792" id="transform-me" transform="matrix(1,0,0,1,-122.24000000000001,-76.4)"></rect></mask><mask id="7f683778-a416-4641-b02e-07295b2dabf1"><rect width="640" height="400" fill="white"></rect><rect width="348.05760000000004" height="116.04791656858455" fill="black" x="145.97119999999998" y="141.9760417157077" id="transform-me" transform="matrix(1,0,0,1,-122.24000000000001,-76.4)"></rect></mask></defs></svg><rect width="395.52" height="247.2" fill="none" stroke="none" visibility="hidden"></rect></g></svg></g></svg>